<?xml version="1.0" standalone="no"?>
<!DOCTYPE svg PUBLIC "-//W3C//DTD SVG 20010904//EN"
 "http://www.w3.org/TR/2001/REC-SVG-20010904/DTD/svg10.dtd">
<svg version="1.0" xmlns="http://www.w3.org/2000/svg"
 width="700.000000pt" height="700.000000pt" viewBox="0 0 700.000000 700.000000"
 preserveAspectRatio="xMidYMid meet">
<metadata>
Created by potrace 1.11, written by Peter Selinger 2001-2013
</metadata>
<g transform="translate(0.000000,700.000000) scale(0.100000,-0.100000)"
fill="#000000" stroke="none">
<path d="M870 6424 c-145 -39 -256 -152 -295 -299 -13 -53 -15 -335 -15 -2636
0 -2559 0 -2577 20 -2635 48 -139 138 -226 289 -279 38 -13 342 -15 2625 -15
2332 0 2588 2 2637 16 152 45 271 172 299 323 7 36 10 918 10 2621 0 2549 0
2568 -20 2626 -43 123 -132 219 -247 266 l-58 23 -2595 2 c-2259 1 -2602 0
-2650 -13z m2693 -1354 c24 -63 67 -176 96 -250 28 -74 55 -144 61 -155 5 -11
39 -99 75 -195 36 -96 89 -235 117 -307 l51 -133 51 -1 c28 -1 69 -2 91 -4 22
-1 101 -6 175 -9 74 -4 160 -9 190 -11 30 -2 109 -7 175 -10 133 -7 212 -11
390 -21 66 -4 137 -7 157 -8 20 -1 39 -4 42 -7 3 -3 -24 -30 -62 -60 -37 -29
-69 -56 -72 -59 -3 -3 -27 -24 -55 -45 -27 -22 -52 -42 -55 -45 -3 -3 -52 -44
-110 -90 -58 -46 -107 -87 -110 -90 -3 -3 -77 -64 -165 -135 -88 -71 -168
-136 -179 -145 -10 -8 -30 -25 -44 -38 -14 -12 -47 -39 -74 -59 -26 -21 -48
-42 -48 -48 0 -6 7 -38 15 -70 9 -33 36 -136 60 -230 24 -93 58 -224 75 -290
17 -66 58 -223 90 -350 33 -126 64 -245 69 -262 5 -18 8 -33 5 -33 -2 0 -64
39 -136 86 -73 47 -198 128 -278 179 -80 52 -150 99 -157 104 -7 6 -14 11 -17
11 -3 0 -96 60 -208 133 -286 188 -273 180 -299 166 -12 -6 -101 -63 -198
-126 -97 -64 -198 -130 -226 -148 -27 -18 -90 -59 -140 -91 -49 -33 -94 -61
-100 -64 -5 -3 -55 -35 -110 -71 -200 -132 -273 -177 -278 -172 -3 3 -2 15 3
26 8 18 35 119 55 207 2 8 22 83 43 165 198 757 217 835 206 845 -5 4 -74 60
-154 125 -80 65 -163 133 -185 151 -22 18 -141 115 -265 216 -333 271 -365
298 -363 306 2 3 20 7 40 8 21 1 94 4 163 8 69 4 159 9 200 11 194 10 309 16
355 20 28 2 118 7 200 11 83 3 164 8 180 9 17 2 53 3 81 4 l51 1 133 348 c73
191 138 361 145 377 7 17 25 64 40 105 15 41 34 89 41 105 7 17 26 66 42 110
17 44 38 98 47 120 17 39 18 39 25 15 5 -14 28 -77 53 -140z"/>
</g>
</svg>
