<svg width="120" height="120" viewBox="0 0 120 120" fill="none" xmlns="http://www.w3.org/2000/svg">
<path fill-rule="evenodd" clip-rule="evenodd" d="M92.3782 0H64.2915L69.7036 11.2533L92.3782 0ZM68.3049 16.2131L53.3618 23.6397L65.359 48.533L80.3154 41.1197L68.3049 16.2131ZM15.104 73.4668L62.306 50.0536L50.3089 25.147L3.10683 48.5602L15.104 73.4668ZM119.386 26.0265L119.986 25.7199V27.2662L119.386 26.0265ZM106.842 0H116.307C117.379 0.111418 118.364 0.638741 119.052 1.46882C119.74 2.29889 120.075 3.36558 119.986 4.43998V21.4533L117.72 22.5733L106.842 0ZM66.6515 12.76L60.493 0H41.9774L51.6951 20.1733L66.6515 12.76ZM119.986 115.587L109.628 94.0933L119.986 88.9199V115.587ZM3.69335 120H33.7395L13.7443 78.4398L0.0142305 85.2265V115.56C-0.075259 116.634 0.259866 117.701 0.947695 118.531C1.63552 119.361 2.62125 119.888 3.69335 120ZM116.32 27.5463L119.986 35.1463V84.6794L107.962 90.6394L85.0339 43.0529L116.32 27.5463ZM103.056 0H101.017L71.3705 14.7066L83.3676 39.5999L114.653 24.0932L103.056 0ZM57.4003 119.999L88.5528 104.546L96.0044 119.999H57.4003ZM81.968 44.5729L67.0249 51.9862L89.9528 99.5727L104.909 92.1594L81.968 44.5729ZM3.69335 0H27.341L0.0142305 18.6666V4.43998C-0.075259 3.36558 0.259867 2.29889 0.947696 1.46882C1.63552 0.638741 2.62125 0.111418 3.69335 0ZM117.946 119.213L106.575 95.6134L91.6186 103.027L99.8033 120H116.306C116.913 119.994 117.505 119.814 118.012 119.48L117.946 119.213ZM1.43901 45.1065L0.0126852 42.1465V23.1866L34.0179 0H38.1769L48.6411 21.6933L1.43901 45.1065ZM12.0383 74.9866L0.0411577 50.08L0.0144974 50.0933V80.9465L12.0383 74.9866ZM37.5252 119.999L16.7702 76.9195L63.9722 53.5062L86.9001 101.093L48.7625 119.999H37.5252Z" fill="#946EFF"/>
</svg>
